<svg viewBox="0 0 137 29" xmlns="http://www.w3.org/2000/svg"><title>Page 1</title><g fill="none" fill-rule="evenodd"><path d="M5.126 28.735c-2.727 0-4.938-2.236-4.938-4.996V5.185c0-2.76 2.21-4.996 4.938-4.996h18.342c2.727 0 4.937 2.237 4.937 4.996v18.554c0 2.76-2.21 4.996-4.937 4.996H5.126z" fill="#FFF"/><path d="M5.126 28.546h18.341c1.312 0 2.5-.538 3.36-1.407a4.821 4.821 0 0 0 1.39-3.4V5.186c0-1.328-.531-2.53-1.39-3.4a4.709 4.709 0 0 0-3.36-1.407H5.127c-1.313 0-2.5.538-3.36 1.407a4.821 4.821 0 0 0-1.39 3.4V23.74a4.82 4.82 0 0 0 1.39 3.399 4.709 4.709 0 0 0 3.36 1.407m18.34.378H5.127a5.08 5.08 0 0 1-3.626-1.52A5.197 5.197 0 0 1 0 23.74V5.185C0 3.754.574 2.458 1.501 1.52A5.08 5.08 0 0 1 5.126 0h18.341a5.08 5.08 0 0 1 3.625 1.52 5.197 5.197 0 0 1 1.502 3.665V23.74c0 1.43-.574 2.727-1.502 3.665a5.081 5.081 0 0 1-3.625 1.519" fill="#BABAC3"/><path fill="#1FBAD6" d="M5.46 24.77l8.837-4.727V4.155l-8.838 5.933z"/><path fill="#151525" d="M23.134 24.77l-8.837-4.727V4.155l8.837 5.933z"/><path fill="#1FBAD6" d="M35.83 4.156h3.684v5.439H41.7v3.187h-2.186v11.569H35.83V12.782h-1.89V9.595h1.89zm15.735 11.807c-.056-1.361-.94-2.695-3.04-2.695-1.908 0-2.958 1.445-3.041 2.695h6.08zm3.426 4.472c-.69 2.36-2.846 4.333-6.191 4.333-3.73 0-7.02-2.694-7.02-7.305 0-4.361 3.206-7.194 6.688-7.194 4.202 0 6.717 2.694 6.717 7.082 0 .528-.056 1.084-.056 1.14h-9.728c.083 1.805 1.603 3.11 3.427 3.11 1.714 0 2.654-.861 3.095-2.083l3.068.917zm4.119-.584c.082 1.084.885 2.084 2.488 2.084 1.215 0 1.796-.64 1.796-1.362 0-.61-.415-1.11-1.465-1.333l-1.797-.416c-2.625-.584-3.814-2.167-3.814-4.083 0-2.445 2.156-4.472 5.086-4.472 3.87 0 5.168 2.472 5.334 3.944l-3.068.694c-.11-.805-.691-1.833-2.238-1.833-.968 0-1.742.583-1.742 1.36 0 .668.497 1.085 1.244 1.223l1.934.417c2.682.555 4.036 2.194 4.036 4.194 0 2.222-1.714 4.5-5.28 4.5-4.09 0-5.499-2.667-5.666-4.222l3.152-.695zM69.24 4.156h3.684v5.439h2.187v3.187h-2.187v11.569H69.24V12.782h-1.89V9.595h1.89zm13.938 9.474c-1.852 0-3.4 1.36-3.4 3.86 0 2.473 1.548 3.89 3.4 3.89 1.88 0 3.372-1.39 3.372-3.89s-1.492-3.86-3.372-3.86zm-6.964 10.72V4.241h3.62v7.944c.608-.972 2.1-1.861 4.118-1.861 3.98 0 6.274 3.084 6.274 7.139 0 4.138-2.542 7.221-6.412 7.221-1.88 0-3.317-.833-4.036-2v1.667h-3.564zm25.51-6.832c0-2.583-1.658-3.889-3.455-3.889-1.796 0-3.455 1.306-3.455 3.89 0 2.555 1.66 3.888 3.455 3.888 1.797 0 3.455-1.306 3.455-3.889m3.677 0c0 4.194-3.069 7.25-7.132 7.25s-7.13-3.056-7.13-7.25c0-4.222 3.067-7.25 7.13-7.25s7.132 3.028 7.132 7.25m11.497 0c0-2.583-1.658-3.889-3.455-3.889-1.796 0-3.455 1.306-3.455 3.89 0 2.555 1.66 3.888 3.455 3.888 1.797 0 3.455-1.306 3.455-3.889m3.677 0c0 4.194-3.069 7.25-7.132 7.25s-7.13-3.056-7.13-7.25c0-4.222 3.067-7.25 7.13-7.25s7.132 3.028 7.132 7.25m9.673-1.083l5.556 7.916h-4.506l-3.593-5.222-1.52 1.611v3.611h-3.676V4.241h3.676V15.77l4.698-5.084h4.81z"/></g></svg>