<svg id="Layer_1" xmlns="http://www.w3.org/2000/svg" viewBox="0 0 82 41"><style>.st0{fill:#d3e2ea}.st1{fill:#405060}.st2{fill:#1fbad6}.st3{fill:#fff}.st4{fill:#788ea0}</style><path class="st0" d="M35.6 35.2H18.7c-.6 0-1-.5-1-1v-17c0-.6.5-1 1-1h16.9c.6 0 1 .5 1 1v16.9c.1.6-.4 1.1-1 1.1z"/><g id="XMLID_25_"><path id="XMLID_26_" class="st1" d="M27 27.5c0 .9-.3 1.7-.9 2.2-.6.5-1.3.8-2.3.8-.4 0-.8 0-1.2-.1-.4-.1-.9-.2-1.4-.4l.2-1.3c.5.2 1 .4 1.3.5.3.1.6.1 1 .1.6 0 1-.2 1.4-.5.3-.3.5-.7.5-1.2s-.1-.9-.4-1.3c-.3-.3-.7-.5-1.2-.6-.4.1-.9.1-1.5.1v-1.2c1 0 1.7-.2 2.2-.5.4-.3.7-.8.7-1.3 0-.4-.1-.8-.4-1-.3-.3-.7-.4-1.2-.4-.3 0-.5 0-.8.1-.2.1-.5.2-.9.4l-.2-1.2c.6-.3 1.3-.5 1.9-.5 1 0 1.8.2 2.3.7.6.5.9 1.1.9 2 0 1-.4 1.7-1.3 2.3.2.1.4.3.6.5h3.2v-4.2h-1.8V20h5.6v1.2h-2.2v10h-1.6v-4.6H27v.9z"/></g><path class="st2" d="M22.3 5.8H5.4c-.6 0-1 .5-1 1v16.9c0 .6.5 1 1 1h16.9c.6 0 1-.5 1-1V6.9c0-.6-.4-1.1-1-1.1z"/><path class="st3" d="M18.5 11h-6v2.4H18v2h-5.5v2.9h6.3v2h-8.6V9h8.3v2z"/><path class="st4" d="M34.4 12.3c-.1-.2-.4-.3-.7-.2l-1.3.7c.2-.8.2-1.7 0-2.5-.4-1.3-1.2-2.4-2.4-3-1.4-.8-3.2-.9-4.6-.1-.2.1-.4.4-.2.7.1.2.4.4.7.2 1.2-.6 2.6-.5 3.7.1.9.5 1.6 1.4 1.9 2.4.2.7.2 1.4 0 2.1l-.9-1.6c-.1-.2-.4-.3-.7-.2-.2.1-.3.4-.2.7l1.4 2.5s0 .1.1.1l.1.1h.2c.1 0 .2 0 .2-.1l2.5-1.4c.3.1.4-.3.2-.5zM15.6 33.4c-.1-.3-.4-.4-.7-.2-1.2.5-2.6.5-3.7-.2-.9-.6-1.6-1.4-1.8-2.5-.2-.7-.1-1.4.1-2.1l.8 1.6c.1.2.3.3.4.3.1 0 .2 0 .2-.1.2-.1.3-.4.2-.7l-1.3-2.6s0-.1-.1-.1l-.1-.1h-.5L6.7 28c-.2.1-.3.4-.2.7.1.2.4.3.7.2l1.3-.7c-.2.8-.2 1.6 0 2.5a4.8 4.8 0 0 0 2.3 3.1c.8.5 1.6.7 2.4.7.7 0 1.5-.1 2.2-.4.2-.2.3-.5.2-.7z"/><path class="st0" d="M76.6 35.2H59.7c-.6 0-1-.5-1-1v-17c0-.6.5-1 1-1h16.9c.6 0 1 .5 1 1v16.9c.1.6-.4 1.1-1 1.1z"/><path class="st1" d="M71.8 22h-6v2.4h5.5v2h-5.5v2.9H72v2h-8.6V20h8.3v2z"/><path class="st2" d="M63.3 5.8H46.4c-.6 0-1 .5-1 1v16.9c0 .6.5 1 1 1h16.9c.6 0 1-.5 1-1V6.9c0-.6-.4-1.1-1-1.1z"/><path class="st4" d="M75.4 12.3c-.1-.2-.4-.3-.7-.2l-1.3.7c.2-.8.2-1.7 0-2.5-.4-1.3-1.2-2.4-2.4-3-1.4-.8-3.2-.9-4.6-.1-.2.1-.4.4-.2.7.1.2.4.4.7.2 1.2-.6 2.6-.5 3.7.1.9.5 1.6 1.4 1.9 2.4.2.7.2 1.4 0 2.1l-.9-1.6c-.1-.2-.4-.3-.7-.2-.2.1-.3.4-.2.7l1.4 2.5s0 .1.1.1l.1.1h.2c.1 0 .2 0 .2-.1l2.5-1.4c.3.1.4-.3.2-.5zM56.6 33.4c-.1-.3-.4-.4-.7-.2-1.2.5-2.6.5-3.7-.2-.9-.6-1.6-1.4-1.8-2.5-.2-.7-.1-1.4.1-2.1l.8 1.6c.1.2.3.3.4.3.1 0 .2 0 .2-.1.2-.1.3-.4.2-.7l-1.3-2.6s0-.1-.1-.1l-.1-.1h-.5L47.7 28c-.2.1-.3.4-.2.7.1.2.4.3.7.2l1.3-.7c-.2.8-.2 1.6 0 2.5a4.8 4.8 0 0 0 2.3 3.1c.8.5 1.6.7 2.4.7.7 0 1.5-.1 2.2-.4.2-.2.3-.5.2-.7z"/><g id="XMLID_10_"><path id="XMLID_17_" class="st3" d="M54.7 17.2c0 .9-.3 1.7-.9 2.2-.6.5-1.3.8-2.3.8-.4 0-.8 0-1.2-.1-.4-.1-.9-.2-1.4-.4l.2-1.3c.5.2 1 .4 1.3.5.3.1.6.1 1 .1.6 0 1-.2 1.4-.5.3-.3.5-.7.5-1.2s-.1-.9-.4-1.3c-.3-.3-.7-.5-1.2-.6-.4.1-.9.1-1.5.1v-1.2c1 0 1.7-.2 2.2-.5.4-.3.7-.8.7-1.3 0-.4-.1-.8-.4-1-.3-.3-.7-.4-1.2-.4-.3 0-.5 0-.8.1-.2.1-.5.2-.9.4l-.2-1.2c.6-.3 1.3-.5 1.9-.5 1 0 1.8.2 2.3.7.6.5.9 1.1.9 2 0 1-.4 1.7-1.3 2.3.2.1.4.3.6.5h3.2V11h-1.8V9.7H61V11h-2.2v10h-1.6v-4.6h-2.5v.8z"/></g></svg>