<svg xmlns="http://www.w3.org/2000/svg" viewBox="0 0 643.1 1441"><path fill="#181F33" d="M104 1295.8c-40.4 10.5-64.5 12.3-64.5 12.3l.9 10.2.9 10.2s30.8-2.2 80.8-17.4c6.7 12.7 22 37 49.5 56.2 31.2 21.7 73.9 6.7 73.9 6.7s-20.4-51.8-55.4-68.1c-9.7-4.5-22.7-6-35.1-6.2 17.5-6.7 36.5-15.3 56.5-25.9 8.2 10.9 26.7 31.6 56.2 44.8 33.3 14.9 72.3-7.9 72.3-7.9s-27.4-46.1-63.5-55c-10.2-2.5-23.3-1.3-35.4 1 6.8-4.2 13.7-8.6 20.6-13.3 11-6.9 22-14.8 32.9-23.4 9.8 9 30.5 25 60.5 31.9 34.4 7.9 68.6-21.6 68.6-21.6s-33.3-39.1-69.5-40.7c-9.8-.4-21.7 2.9-32.7 7.3 15.5-14.3 30.7-30.2 45.3-47.6 10.5 6.7 33.2 18.5 63.7 19.4 34.3.9 63-34.2 63-34.2s-37.9-31.3-73.1-25.8c-10.4 1.7-22.6 8.2-33.2 15.2 13.8-18.2 27-37.7 39.4-58.3 10.6 4.4 34.9 12.1 65.7 6.8 33.3-5.8 55.7-45.3 55.7-45.3s-41.3-22.8-74.4-10.6c-10.7 3.9-22.6 13.9-32.3 23.6 11.7-21.6 22.4-44.2 32-67.7 10.9 2.2 35.5 4.9 64.3-6.2 31.3-12 47-54.5 47-54.5s-43.2-14-73.4 4.2c-9.6 5.8-19.4 17.5-27.3 28.5 8.3-23.4 15.5-47.5 21.2-72.3 10.9 0 34.9-2.2 61-18.5 28.4-17.7 37.3-61.8 37.3-61.8s-43.8-5.1-70.2 18.4c-8.3 7.4-15.9 20.2-21.9 32.3 4.5-24.7 7.5-49.9 9-75.5 10.3-2.1 33.6-8.8 56.6-29.8 24.8-22.6 26.7-66.9 26.7-66.9s-43 3.6-65 31.4c-7.1 9-12.7 23.4-16.6 36.6 1.1-27.1.4-53.9-1.9-80.3 9.7-4 30.9-15.1 49.9-39.7 20.5-26.6 15.8-69.7 15.8-69.7s-41 11.9-58.1 42.9c-5.6 10.2-8.8 25.6-10.7 39.3-3.6-27.4-8.8-54.2-15.5-80.2 8.3-5.3 28.1-20.1 43.3-48.7 15.9-29.7 4.9-70.3 4.9-70.3S511.9 451 500 484.3c-4.4 12.4-4.9 30.6-4.3 45.1-8.1-27.9-17.8-54.8-28.8-80.4 6.7-6.1 24.4-24.4 35.2-56 10.9-31.7-5.7-68.9-5.7-68.9s-33.6 26.1-40.1 60.5c-2.6 13.9.2 33.4 3.2 47.8-12.6-27.4-26.6-53.1-41.7-76.9 5.7-7.4 19.9-28.4 25.6-60.8 5.8-32.7-15.8-65.4-15.8-65.4S399 261 397.9 295.5c-.5 13.6 4.9 31.3 9.8 44.5-16.5-24.4-34-46.4-52.1-65.6 4.4-8.2 15-31.3 15.7-63.7.7-32.7-25-60-25-60s-22.8 36.2-18.8 69.7c1.7 13.9 10.2 31 17.2 42.8-6.4-6.4-12.9-12.4-19.4-18-14.7-13.5-29.1-25.5-43.2-36.1 2.6-7.1 10.6-32.5 6.2-66-4.2-31.7-33-53.1-33-53.1s-16.7 39.4-7.7 70.9c4.2 15 17.8 32.2 26.4 42.1-26.2-19-50.8-33.2-72.3-43.8 1.3-6.5 5.7-33.2-3.8-65.5-8.8-29.8-39.8-44.8-39.8-44.8s-10.2 41.2 3.1 69.9c6.7 14.6 24.2 29.6 33.7 37-14.8-7-27.9-12.2-38.9-16.2-3.3-4.8-19.5-26.7-39.2-30.6-15.8-3.1-42.4 8.6-42.4 8.6s12.7 19.8 38.5 29.9c17.2 6.8 36.3-2.6 42-5.8 13.4 5.2 29.9 12.5 48.8 22.5-11.1-2.2-33.6-5.5-47.7-.2-27 10.1-44.7 47.9-44.7 47.9s31.4 13.8 55.8-.7c26.1-15.5 39.1-37.7 42.4-43.8 21.2 11.6 44.9 26.7 70 46.3-11.6-4.5-30.8-10.6-44.1-8.4-28.7 4.7-52.4 39.1-52.4 39.1s29.5 20.2 56.2 10.6c27.2-9.7 43.5-28 48.7-34.6 11.1 9 22.4 18.9 33.9 29.8 10.2 9.1 20.3 19.1 30.3 30-10.9-6.9-29.5-17.2-43.5-17.7-29.6-1.1-58.7 28.7-58.7 28.7s26.5 26.3 54.9 22c29.1-4.3 48.4-19.6 54.4-25 17.9 20.6 35.2 44 51.3 69.8-10.1-9-25.5-21-38.2-24.1-29.6-7.1-63.4 16.9-63.4 16.9s22.5 31.8 51.7 33.3c28.6 1.5 49.7-9 57.6-13.6 14 23.7 26.9 49.1 38.4 75.9-8.7-10.6-20.9-23.5-32-28.6-28.6-13.1-66.3 4.2-66.3 4.2s17.7 36.5 46.8 43.9c27.3 7 49.6 1.6 58.9-1.6 10.4 26.2 19.3 53.6 26.6 81.9-7.1-12.4-17.2-27.6-27.6-35-26.7-19-67.3-9.3-67.3-9.3s12.1 40.3 40.2 53.6c26.4 12.6 49.6 11.6 59.4 10.3 6.4 28.4 11 57.6 13.6 87.3-5.2-14.1-13.2-32.3-22.8-42.1-23.9-24.4-66.2-22.9-66.2-22.9s5.9 42.9 32.1 62c24.7 18.1 48.3 21.7 58.3 22.4 1.6 27.6 1.4 55.7-.9 83.9-3.1-14.7-8.1-32.5-15.7-43.4-20.3-29-63.1-36-63.1-36s-.7 44.3 22.6 68.8c21.5 22.6 44 31.2 54.3 34.1-2.4 27.1-6.7 53.6-12.4 79.4-.9-15.3-3.2-34.1-9-46.4-15.7-33.7-57.6-49.4-57.6-49.4s-7.6 44.4 12.1 73.7c17.9 26.7 38.8 39.8 48.8 45.1-6.6 24.9-14.5 49.1-23.7 72.4 1.3-15 1.6-32.8-2.1-45.5-10.6-37-50.2-61.3-50.2-61.3s-14.5 43.1.7 76.5c13.5 29.8 32 47.1 41.5 54.7-10 22.6-21.1 44.3-33 64.9 3.4-14.4 6.1-31.1 4.4-44-4.9-39.4-41-71.7-41-71.7s-21.2 40.3-11.2 77c8.8 32.2 24.3 53.2 32.8 63-13.7 21.4-28.3 41.4-43.5 59.9 5.9-14.2 11.8-31.4 12.2-45.4 1.1-40.5-30.1-80.4-30.1-80.4s-27.6 36.2-23.1 75.1c4 34.9 16.8 59.5 23.7 70.7-17.1 18.8-34.7 35.7-52.6 50.3 8.3-13.2 17.1-29.7 19.7-43.9 7.4-40.5-17.8-86.9-17.8-86.9s-33.3 30.8-34.9 70.8c-1.4 35.7 7.5 62.8 12.8 75.5-6.9 4.9-13.7 9.5-20.6 13.8-12.4 8.3-24.6 15.7-36.5 22.3 9.8-11.1 20-24.9 24.5-37.7 13.8-39.2-4.4-90.9-4.4-90.9s-38.3 24.2-46.1 64.1c-6.8 34.7-2.4 63.4.9 77.6-21.8 10.6-42 18.6-60.3 24.6 11.4-9.2 23.6-20.8 30-32.6 19.9-36.6 9.7-92.2 9.7-92.2s-42.2 16.6-56.2 55.1c-11.9 33.1-12.1 62.6-11 77.7z"/></svg>