<svg xmlns="http://www.w3.org/2000/svg" width="300" height="66" viewBox="0 0 300 66">
  <g fill="#FFF" fill-rule="evenodd" transform="translate(30 7)">
    <path d="M79.5531587 34.7948228C79.5531587 35.6864099 79.2303236 36.4389522 78.5853929 37.0531895 77.9400924 37.6681664 77.0644068 37.9751002 75.9579661 37.9751002L72.9625886 37.9751002 72.9622188 15.2993529 75.9575963 15.2993529C77.064037 15.2993529 77.9397227 15.6070262 78.5850231 16.2212635 79.2299538 16.8362404 79.5538983 17.5887827 79.5538983 18.4796302L79.5531587 34.7948228zM84.991433 11.9349153C84.0695223 11.075131 82.9090909 10.3987673 81.5112481 9.90693374 80.1130354 9.41583975 78.46151 9.16955316 76.5570416 9.16955316L62.4754391 9.16955316 64.805547 12.3446533 64.8048074 41.067735 62.4758089 44.2432049 76.5574114 44.2432049C78.4618798 44.2432049 80.1134052 43.9895223 81.5116179 43.482527 82.9094607 42.9755316 84.0698921 42.284376 84.9918028 41.4086903 85.9133436 40.5330046 86.5967334 39.5267797 87.0423421 38.3896456 87.4879507 37.2532512 87.7109399 36.0551002 87.7109399 34.7948228L87.7116795 18.4796302C87.7116795 17.2200924 87.4875809 16.0297072 87.0419723 14.907735 86.5963636 13.7865023 85.9129738 12.7954391 84.991433 11.9349153zM106.343408 22.689208C106.343408 24.5367273 105.673331 25.5477596 103.805473 25.6235686L100.167384 25.6235686 100.167384 14.9167581 103.409048 14.9167581C104.317276 14.9167581 106.386675 15.0602404 106.343408 17.68249L106.343408 22.689208zM110.951852 28.8497011C111.597153 28.5427673 112.190311 28.1359877 112.749448 27.6511803 113.311174 27.1648937 114.604733 25.7714884 114.59327 23.0475439L114.59327 16.6821818C114.59327 15.9448012 114.524117 15.1460339 114.385812 14.28551 114.247877 13.4257257 113.90914 12.611057 113.371821 11.8426133 112.834133 11.0749091 112.019464 10.4370046 110.928924 9.93000924 109.838015 9.42301387 108.339957 9.16970108 106.435119 9.16970108L92.0269831 9.16970108 92.0269831 44.2429831 100.166644 44.2429831 100.166644 32.0758336 104.963316 32.0758336C105.946613 32.0758336 106.991297 32.5761726 106.988339 33.9592234 106.98723 34.4059414 106.988339 43.9667427 106.988339 44.2429831L115.284795 44.2429831 115.284795 34.3342003C115.284795 32.6549399 114.790003 29.4676364 110.951852 28.8497011zM119.083969 17.1976456L119.083969 36.1576456C119.025911 42.4701263 123.300795 44.2018983 127.091982 44.2433159L138.206311 44.2433159 138.206311 37.7215285 128.714663 37.7215285C127.043168 37.7215285 127.226589 36.0851649 127.226589 36.0851649L127.226589 29.8950878 136.967112 29.8950878 136.967112 23.442453 127.226589 23.442453 127.226589 17.4062126C127.226589 17.4062126 127.116388 15.6330231 128.730564 15.6219291L138.206311 15.6219291 138.206311 9.1696641 127.606003 9.1696641C120.043969 9.1696641 119.083969 14.2203883 119.083969 17.1976456M157.747008 25.6123267L150.497455 25.6123267 150.497455 14.9277042C150.497455 14.9277042 153.368579 14.9306626 154.19804 14.9306626 156.850243 14.9306626 157.702632 16.0792604 157.747008 18.3143297L157.747008 25.6123267zM155.018626 9.16955316L142.354465 9.16955316 142.353726 9.16955316 142.353726 44.2432049 150.497455 44.2432049 150.497455 32.0645917 157.747008 32.0645917 157.747008 44.2432049 166.043094 44.2432049 166.043094 19.2266256C166.043094 11.6368567 160.875513 9.16955316 155.018626 9.16955316zM196.542213 8.56992296C193.273923 8.57842835 190.524832 9.19266564 188.545664 10.1375039 187.900364 9.70742681 187.139686 9.3620339 186.26437 9.10058552 185.388314 8.83987673 179.861658 7.82588598 170.755341 9.54878274L170.755341 44.2433898 178.883908 44.2433898 178.883908 15.9722034C182.577097 15.5306626 183.551149 16.0332203 183.913553 16.244376 185.262213 17.0294607 185.273307 18.646225 185.273307 19.305208L185.273307 44.2433898 192.417097 44.2433898 192.417097 18.4794453C192.417097 17.9265948 192.370872 17.3275193 192.278792 16.6822188 192.647482 16.5287519 192.98437 16.3945146 193.691797 16.2403082 194.398114 16.0872111 196.035957 15.714453 197.35873 16.3756549 197.985911 16.689245 198.752136 17.357473 198.746219 19.1247458L198.746219 44.2433898 206.889208 44.2433898 206.889208 18.5718952C206.889208 15.9256086 206.728345 13.109584 204.575371 11.1293066 203.159408 9.82650231 201.242737 8.55808937 196.542213 8.56992296"/>
    <polygon points="212.355 16.6 216.014 16.6 216.014 44.243 224.184 44.243 224.184 9.17 214.706 9.17"/>
    <polygon points="230.307 9.17 227.956 16.6 231.616 16.6 231.616 44.243 239.785 44.243 239.785 9.17"/>
    <path d="M29.9987427,26.841171 C30.4961233,26.3678274 30.6666009,25.5269029 30.6666009,24.8394453 L30.6666009,12.8353775 C30.6666009,11.9881664 30.5564006,11.3639445 29.9987427,10.8144222 C29.5094977,10.3325732 28.8261079,10.1036672 27.97298,10.1036672 L25.5160308,10.1036672 L25.5160308,27.551926 L27.97298,27.551926 C28.8261079,27.551926 29.5013621,27.3152542 29.9987427,26.841171"/>
    <path d="M17.1314145,32.3990015 L19.3320924,30.0300647 L19.3320924,7.83505701 L17.1314145,5.46353159 L25.4101202,5.46353159 C30.5436795,5.46353159 31.3823852,5.64214484 32.4603513,6.02081972 C33.5383174,6.40023421 34.2272542,6.84658243 34.9380092,7.50963328 C35.6487643,8.17305393 36.1757288,8.93706009 36.5192727,9.80165177 C36.8628166,10.6669831 37.0347735,11.5848259 37.0347735,12.5559199 L37.0347735,25.0998952 C37.0347735,26.0717288 36.8628166,26.9954884 36.5192727,27.8719137 C36.1757288,28.7487088 35.6487643,29.5241787 34.9380092,30.199433 C34.2272542,30.8746872 33.3186564,31.3709584 32.2551125,31.7984468 C30.1897812,32.6290169 25.7518151,32.4038089 24.8720616,32.4038089 C24.7718459,32.4038089 17.1314145,32.3990015 17.1314145,32.3990015 Z M32.4096888,42.5337319 C41.8166533,36.3118521 46.292339,33.0705578 48.3129245,31.0226071 C53.966792,25.2921911 53.7630324,21.2133005 53.6835254,13.4708043 C53.6801972,13.170527 53.6835254,10.8356117 53.6835254,10.8356117 L52.7523698,10.212869 C52.6129553,10.1196795 50.0853744,8.4433775 47.1199507,7.33397843 L47.1199507,11.8163205 C48.1409676,12.2830077 49.0514145,12.7851957 49.685621,13.1583236 C49.6867304,13.2481849 49.6882096,13.3650416 49.689319,13.5155501 C49.7433097,18.7633775 49.8213374,22.2150878 48.3277165,25.5554884 C47.4871618,27.4643945 46.4140031,28.4902188 45.4706441,29.5907427 C42.3654361,33.2133005 29.25049,42.7659661 29.25049,42.7659661 L29.25049,42.369171 C29.25049,42.369171 37.5247581,35.3363205 38.9551433,33.8833775 C44.9636487,27.779094 45.4510447,22.3545023 45.5346194,18.7752111 C45.5346194,18.7737319 45.5346194,18.7718829 45.5349892,18.7700339 L45.5349892,3.533547 C45.5349892,3.533547 37.1190878,0.0171217257 26.9329553,0.101436055 C14.4928937,0.204610169 8.2270077,3.533547 8.2270077,3.533547 L8.2270077,18.7700339 C8.31021263,22.3489553 8.77135285,27.6836857 14.7831864,33.7909276 C16.1976703,35.2279692 24.4334792,42.369171 24.4334792,42.369171 L24.4334792,42.7659661 C24.4334792,42.7659661 11.1732018,33.3482773 8.09646841,29.7087088 C6.76038213,28.1278151 5.77782435,26.6430693 5.20167643,25.177923 C4.12740832,22.9491402 4.05233898,18.5614669 4.10411094,13.5155501 C4.10595994,13.3650416 4.10706934,13.2481849 4.10854854,13.1583236 C4.73942681,12.7870447 5.64432666,12.2878151 6.65905701,11.8233467 L6.65905701,7.33952542 C3.69991988,8.4489245 1.18084438,10.1196795 1.04179969,10.212869 L0.110644068,10.8356117 C0.110644068,10.8356117 0.113602465,13.170527 0.110644068,13.4708043 C0.0307673344,21.2133005 0.00451155624,25.6094792 5.48087519,31.0226071 C7.2721849,32.7928382 14.5239569,37.9415593 21.2668844,42.5281849 C22.95502,43.6986009 23.9993344,44.4226687 23.9993344,44.4226687 C23.9327704,44.4666749 19.7769615,47.8636549 19.3705516,48.2035008 C17.9808444,49.366151 17.5777627,50.0558274 17.5566841,50.8157658 L17.5566841,52.7098798 L36.184604,52.7098798 L36.184604,50.8157658 C36.1250663,49.9267673 35.7689492,49.3668906 34.3722157,48.2057196 C33.6437103,47.5999877 32.6833405,46.8319137 31.1342496,45.54649 L22.2083945,49.6815901 L22.2083945,49.4915131 L32.4096888,42.5337319 Z"/>
  </g>
</svg>
